<?xml version="1.0" encoding="UTF-8"?>
<!DOCTYPE svg PUBLIC "-//W3C//DTD SVG 1.0//EN" "http://www.w3.org/TR/2001/REC-SVG-20010904/DTD/svg10.dtd">
<!-- Creator: CorelDRAW X6 -->
<svg xmlns="http://www.w3.org/2000/svg" xml:space="preserve" width="81mm" height="107.972mm" version="1.0" style="shape-rendering:geometricPrecision; text-rendering:geometricPrecision; image-rendering:optimizeQuality; fill-rule:evenodd; clip-rule:evenodd"
viewBox="0 0 7577 10101"
 xmlns:xlink="http://www.w3.org/1999/xlink">
 <defs>
  <style type="text/css">
 
    .city {
      fill:#FEFEFE;
      stroke:#fff;
      stroke-width:20px;

    }

    .area {
      fill:#008DD2;
      stroke:#fff;
      stroke-width:20px;
    }

    .center_city {
      fill:#FFB700;
    }

    .city_center {
      fill:#fff;
    }

    .city_center:hover{
      stroke: #008DD2;
      stroke-width:150px;
    }

    .area:hover {
      fill: #035d89;
      stroke: #003b58;
    }

    .city:hover {
      stroke: #ffb700;
      stroke-width:500px;
    }

  </style>
 </defs>
  <path id="Antratsitovskiy" class="area" d="M5693 8382c-91,-134 -62,33 -104,-236 -344,15 13,195 -531,91 -306,-498 -285,-132 -451,-209 -56,-26 -73,-226 -149,-265 -396,-207 -177,-55 -398,-174 -84,87 -228,173 -228,195 0,80 -76,37 -76,58 0,493 192,50 -621,661 4,33 5,66 5,66 272,170 -241,261 393,261 30,0 -53,64 15,73 438,59 398,2 366,297l74 -15 65 230c978,-53 517,-63 689,177 43,60 170,19 159,90 -107,698 595,341 574,221l296 -68 -4 -13 2 -1 0 -2 6 -1c69,-215 10,-209 -180,-248 -130,-640 87,-177 168,-622 18,-98 154,-55 27,-365 -44,96 -201,61 -156,-44l57 -156z"/>

  <path id="Sverdlovskiy" class="area" d="M7299 8117c0,0 -84,97 -87,61 -27,-326 -26,-263 -307,-222l-6 198c-244,0 -183,91 -212,113 -21,15 -88,9 -88,27 0,22 19,58 -61,58 33,-118 47,-175 -225,-149 -209,20 -72,-7 -167,-21 -39,-6 -33,18 -42,-18 -37,-150 -228,61 -228,61 -96,48 -30,-100 -73,-30 -65,106 49,151 -67,189 -83,28 -24,69 -103,196 0,0 99,126 158,-37 154,368 5,313 -12,408 -81,447 -294,1 -170,606 0,0 156,32 194,62 35,28 -14,212 -16,212l113 -25 122 183c74,-132 50,-121 184,-186l154 165c193,-154 387,-124 651,-132l87 -103c-34,-126 -24,-101 91,-138 -131,-465 57,-193 -24,-597 -3,-15 -168,-169 -168,-169 620,-126 153,-109 156,-168 1,-16 88,-68 94,-84 6,-16 -9,-169 -9,-169l79 -110 -18 -181z"/>

  <path id="Krasnodonskiy" class="area" d="M5400 7028c26,-14 72,-40 78,-57 9,-24 -18,-186 -9,-204 9,-18 58,-34 49,-58 -9,-24 -15,-52 -15,-52l88 52c19,-10 136,-81 164,-73 0,0 79,55 191,15 112,-40 152,-55 152,-55 5,-114 -29,-142 0,-186 24,-37 42,-58 67,-70 24,-12 79,-33 79,-34 187,142 309,-114 449,-39 29,15 112,44 112,44l115 296 -55 29c30,245 38,126 181,267 76,75 114,254 114,254l87 -44c-10,241 -20,264 -266,305l-6 119 146 -20 137 152 168 -244c208,343 126,225 152,424l-207 4 5 224 -61 38 -3 -34 -84 87c-28,-313 -52,-265 -198,-244l-138 20 -6 196c-236,6 -190,104 -206,115 -20,14 -94,2 -94,40 0,30 13,34 -25,41 38,-157 -22,-132 -90,-144 -204,-37 -185,48 -287,-16l-61 -8c-14,-56 -45,-79 -102,-66 -33,-87 -102,-78 -118,-91l2 -97 -120 -15c-21,-20 -58,-47 -85,-31 -25,15 -48,47 -63,29 -55,-67 11,-180 58,-138 27,25 25,49 25,80 173,-82 94,-87 98,-166 3,-75 26,-84 23,-99 -16,-108 -75,-57 -133,-128l-18 -16c1,-2 2,-4 3,-6 18,3 25,17 38,15 74,-16 99,-217 14,-244 -149,-46 -370,147 -344,-164z"/>

  <path id="Lutuginskiy" class="area" d="M5383 7036l-109 -18c-118,-178 -77,-14 -156,-125 0,0 -47,-152 -94,-67 -14,25 -4,86 -134,38 171,-108 61,-32 42,-236 -11,-120 -5,-21 -146,-53 -133,-30 8,58 -61,69 -191,30 60,156 -307,187 -111,10 -26,101 -282,101 -145,0 -97,-26 -269,76 191,89 315,36 237,140 -124,166 227,113 -31,432 147,79 392,73 476,304 154,424 136,-275 517,340 531,101 154,-76 535,-94 44,280 7,101 106,246 155,-55 1,-55 83,-191 40,-66 48,31 55,38 123,-69 24,-64 158,-119 -54,-145 -123,24 -118,-180l-112 -14c-156,-79 -92,67 -152,-7 -103,-125 110,-253 110,-93 131,-62 42,-22 91,-238 15,-67 -293,-183 -97,-153 41,-9 97,-163 13,-214 -107,-48 -383,152 -355,-171z"/>

  <path id="Perevalskiy" class="area" d="M3849 7001c-85,-14 -325,-71 -380,-118 -67,-58 -15,7 -118,107 -163,159 -132,92 -257,92 -250,0 59,220 -240,162 -21,163 -197,181 -212,149 -32,-71 -72,-5 -58,43 23,74 49,-7 -42,85 -36,36 46,393 69,402 102,39 51,-28 143,58 -264,192 -75,111 -149,279 -6,14 14,136 14,136 87,-18 498,-116 522,85 104,-78 430,-297 522,-326 221,-69 -4,-351 106,-332 90,15 -40,-10 158,-133l130 -119 3 2c61,-76 156,-204 30,-299 -104,-78 93,-214 -16,-193 -79,15 -168,-38 -238,-70l13 -8z"/>

  <path id="StanichnoLuganskiy" class="area" d="M6224 6297c-18,-19 -26,-40 -23,-62 9,-53 121,-219 121,-219l-42 -82 50 -73c-105,-141 -90,-146 -23,-222l-42 -88c117,-93 128,-71 167,-229 6,-24 3,-226 3,-226l568 116 270 -387 -112 -207 -153 93 -6 162c-150,-8 -93,11 -240,-108l-235 73 -99 -87c0,0 -137,6 -132,-18 5,-24 29,-101 29,-101l-162 -187 -67 17 -82 -64 -160 107 -83 -85 -97 130c-147,-36 -172,-25 -172,-111 0,-44 -138,-205 -161,-247 -14,-25 0,-74 3,-94 -33,0 -114,71 -102,-9 3,-20 -62,-66 -62,-66 -21,16 -16,38 -18,58l-24 87c28,10 65,-1 58,55 -11,86 -117,57 -164,53 0,60 -27,29 57,139 -1,0 -74,-6 -98,10 -34,22 -38,203 -46,232 -23,87 -25,156 -81,230 -30,39 -101,37 -136,58 -69,41 -181,243 -240,302 -94,94 -135,65 -30,158l9 8c-25,71 -37,48 9,141l68 122c-158,30 -203,38 -349,99 56,278 32,152 134,207 17,9 68,72 68,72l120 -15c0,0 -20,61 9,105 29,44 71,15 115,-3 44,-18 30,-52 35,-72 5,-20 17,-12 41,-23 24,-11 11,-26 11,-37 0,-11 73,-18 118,-49 46,-30 9,-23 12,-40 3,-17 15,-55 21,-91 6,-37 15,-32 36,-47 21,-15 62,-110 97,-143 40,-38 103,46 114,73 7,1 160,171 246,224 135,83 172,-3 220,2 45,4 127,123 83,153 -44,30 -63,83 -105,113 -5,40 137,160 47,179 -49,10 9,118 -30,156 -23,23 -45,86 -56,117l61 36c196,-103 124,-73 221,-48 91,24 187,-26 270,-58 3,-100 -31,-133 2,-184 41,-62 76,-77 139,-104z"/>

  <path id="Luganskaya" class="center_city" d="M5385 7020l-101 -16c-39,-63 -3,-77 -93,-84 -99,-7 -57,-127 -115,-127 -123,0 -21,99 -149,65 33,-23 107,-83 68,-107 -29,-18 -30,50 -46,-125 -2,-24 13,-70 -33,-70 7,-44 -51,-102 -26,-161 14,-32 8,-43 29,-38 21,5 73,46 97,55 24,9 50,-5 77,6 27,11 36,47 53,40 58,-27 -25,-56 0,-123 17,-44 24,-59 18,-108 -6,-49 15,-46 -2,-73 -17,-27 -53,-47 -52,-82 3,-77 85,-37 70,-165 -11,-97 -54,-150 -57,-181 0,-1 121,149 240,222 57,35 149,54 194,16 64,-56 128,100 108,113 -61,42 -68,87 -106,114 -38,27 119,162 53,176 -66,14 -3,126 -38,160 -23,23 -46,83 -58,120l-37 -22c22,98 34,86 6,106 -45,32 -37,38 -27,139 10,105 24,96 -73,148l0 2z"/>

  <path id="Slavyanoserbskiy" class="area" d="M4181 5790c56,276 67,108 208,278l106 -13c-26,166 164,143 194,16 5,-23 70,-4 54,-56 21,-8 183,-52 129,-96 18,-86 164,-390 238,-202 -35,50 116,179 5,306 -50,57 74,152 15,308 -11,28 23,106 10,114l-220 -100c-102,-22 -16,183 -22,215 -38,3 -262,-36 -171,70 -199,35 22,160 -310,188 -101,9 -99,111 -348,97 -147,-8 -197,126 -366,42 -67,-34 -157,-27 -224,-84 -97,-81 -119,235 -358,199 -253,-38 -62,208 -215,170 -15,-4 -30,-7 -46,-10 -22,-54 77,-212 114,-264 -70,-16 -252,-187 -91,-187 463,0 280,-83 328,-189l81 -204 -88 8c-28,-126 -65,-227 -108,-356 136,-23 277,-51 282,-210 110,-8 177,4 204,-116 134,4 115,5 190,-93 170,34 77,-162 249,-127 51,89 50,278 159,298z"/>

  <path id="Popasnyanskiy" class="area" d="M2843 7226c-19,-47 28,-81 50,-121 23,-42 18,-75 56,-130 -79,-19 -84,-99 -146,-130 -46,-23 16,-82 80,-82 170,0 298,29 320,-105 3,-18 -15,-69 -5,-78 11,-9 71,-178 71,-178 -121,5 -46,33 -150,-222 -14,-34 -36,-148 -48,-159 -18,-5 -73,2 -76,-29 -8,-81 29,-68 89,-145l-95 -49c14,-73 59,-102 65,-133l-105 -86 151 -93 -37 -83c-145,-14 -119,-26 -304,-157 15,-73 67,-155 -18,-188 -237,106 -192,50 -265,-8 -39,-31 -84,-1 -119,11l0 0c-38,19 -71,83 -97,113l0 0 0 0c-88,-2 -128,-10 -173,58 0,0 -342,-336 -448,-230 -132,132 23,237 -8,292l-42 57c-15,15 -18,63 -27,82 -13,28 -23,35 -17,66l68 371 149 11c33,84 63,45 132,27l26 23 -73 55c0,0 -18,160 0,206 18,46 112,171 134,177 9,2 -25,77 -14,105 16,41 38,66 -12,91l-170 169c-6,11 29,69 59,64 30,-5 46,9 46,9 0,0 68,399 111,445 42,46 118,107 123,126 5,20 -74,123 -52,154 23,30 202,187 311,151 74,-25 121,-50 143,-63 -25,-104 -5,-82 62,-152 -50,-59 17,-160 61,-110 29,33 -8,35 62,32 80,-4 124,-94 133,-162l1 0z"/>

  <path id="Novoaydarskiy" class="area" d="M5017 4263c-376,-215 -247,-79 -375,-57 -44,8 -76,18 -91,6 -117,-94 16,-49 -21,-169 -129,91 -154,106 -308,50l-11 145 -771 12c0,0 -223,132 -173,227 15,29 29,96 29,96 -73,55 -148,1 -205,41 -30,21 -42,47 -80,49 -132,5 -100,19 -100,116 0,52 -148,15 -187,27 -65,21 -199,183 -221,244 45,42 11,91 238,-11 91,36 65,59 36,198 194,137 151,135 297,150l46 104 -146 90c40,40 44,14 97,79 -14,81 -37,18 -63,129l101 53c-68,87 -126,113 -96,152 17,22 62,-10 79,30 53,-9 237,-54 259,-95 12,-23 14,-114 14,-114 192,-13 182,4 206,-117 195,6 103,25 191,-88 11,-14 33,8 61,12 38,6 58,-181 209,-142 118,201 42,277 146,295l-2 -11c194,-77 142,-61 343,-101 -84,-150 -103,-155 -71,-247 -123,-111 -56,-98 28,-182 25,-25 191,-272 243,-304 84,-51 92,18 167,-114 32,-57 52,-248 63,-311 16,-93 11,-104 109,-107 -41,-58 -56,-81 -40,-134z"/>

  <path id="Kremenskoy" class="area" d="M499 3867l486 -30c0,0 -15,-21 -21,-73 -6,-52 146,-43 146,-43l346 -128c0,0 182,9 203,21 21,12 100,229 134,229 38,0 182,-156 222,-219 84,4 132,135 132,135 0,17 4,73 6,96 3,41 123,84 124,120 2,37 -5,117 -5,117 201,-88 375,-36 326,29 -14,18 217,-14 243,88 26,102 24,259 79,273 55,14 77,9 76,55 -2,69 -102,5 -81,125 -66,42 45,143 -81,130 -102,-10 -179,4 -238,103 -50,84 -69,45 -105,144 -66,-54 -167,12 -198,64 -11,18 -25,37 -39,53 -100,-2 -131,0 -169,51 -63,-54 -355,-319 -451,-223 -144,145 3,263 -15,300 -22,45 -48,46 -59,101 -15,77 -40,55 -32,99l-327 43c-190,0 -142,-80 -316,-29l55 -163 56 21c0,0 20,-18 12,-46 -11,-41 135,-109 135,-126 0,-16 -162,-227 -162,-262 0,-432 68,-397 -90,-408 -11,-1 -9,98 -15,98 -6,1 -179,18 -240,14 -61,-5 -201,-62 -219,-126 -17,-64 81,-122 87,-136 6,-14 -95,-58 -127,-66 -47,-11 -109,-120 -116,-146 -7,-26 124,-84 124,-84 0,0 -15,-5 -12,-42 6,-66 151,-44 127,-162z"/>

  <path id="Starobelskiy" class="area" d="M4545 4043c107,-54 77,-16 89,-187 -76,-80 -277,-266 -252,-418 3,-18 85,-140 85,-140 85,31 112,52 182,52 0,-210 -76,-122 -64,-204 10,-70 4,-22 55,-85 -35,-103 -148,-42 -129,-99 11,-32 79,-50 96,-50 3,0 13,-102 15,-121 2,-20 15,-62 -36,-43 -51,18 -129,111 -129,111 0,0 -171,-67 -199,-40 -28,27 -24,71 -49,53 -217,-147 -188,-110 -272,86 0,0 140,50 138,69 -2,19 -25,84 -42,87 -17,3 -295,-77 -326,-101 -184,-148 -209,-88 -285,-108 -29,-8 -131,29 -131,29 -94,217 -337,303 -534,334 0,0 -109,-94 -115,-131 -6,-37 -15,-212 -97,-216 -82,-5 -190,96 -202,123 -18,42 297,236 27,328 21,449 -205,250 -228,347 56,85 -29,113 78,185 81,54 74,53 67,166 190,-73 359,-28 332,44 309,22 211,75 273,303 29,108 121,18 118,122 -3,83 -99,17 -82,120 115,-1 115,-28 153,-55 42,-29 153,-2 197,-35 -14,-66 -37,-96 -35,-127 3,-61 53,-92 115,-144l76 -62 762 -12 11 -151c183,66 194,42 330,-53l8 24z"/>

  <path id="Belovodskiy" class="area" d="M5936 2631c23,0 37,-7 51,32 131,368 -84,216 82,393 59,64 88,75 61,166 -41,139 -23,161 125,148 444,-38 258,27 485,37 118,5 68,-43 102,-112 71,34 62,32 108,75l-3 5 6 2 -40 16 -243 497 49 151 -243 -17 -170 49 -108 119 -258 11 -33 249 -52 31 -88 -90 -102 136c-246,-61 -74,-11 -201,-191 -132,-187 -123,-131 -105,-259 -71,0 -75,27 -106,31 -5,-25 29,-35 -76,-109 -47,34 -30,47 -33,75l-28 99c68,24 66,6 61,43 -9,68 -101,44 -144,39l0 -1c-74,-43 -274,-176 -334,-107 -56,64 -141,52 -141,51l-44 -40c14,-35 45,-57 33,-103 114,-57 88,-22 101,-208 -75,-78 -231,-231 -246,-338 -13,-89 -5,-83 70,-195 111,41 99,49 191,49 0,-78 6,-128 -44,-179 -19,-19 -24,-7 -20,-39 9,-64 -2,-9 57,-85 -40,-118 -120,-62 -132,-96 -6,-18 62,-37 84,-41l261 15c115,-51 -1,-93 196,-81 150,9 34,-173 126,-116 95,58 81,59 208,49 85,-6 257,-22 339,-40 92,-20 151,27 161,-28 10,-61 -14,-81 35,-94l0 0z"/>

  <path id="Melovoy" class="area" d="M6021 1698c-1,0 -1,0 -1,72 0,72 61,158 52,201 -9,43 -124,116 -124,134 0,18 52,119 42,186 -9,67 -30,85 -70,155 -39,70 15,170 14,170 36,-5 54,4 67,42 23,64 61,203 36,268 -9,24 -30,15 -15,49 45,100 166,102 122,251 -21,71 -48,133 48,133 24,0 273,-27 332,-16 59,11 134,44 168,46 35,2 106,11 112,-11 6,-21 17,-108 36,-100 79,35 128,90 127,90l174 -309 134 -3 134 -116 -161 -116 -50 -309c-79,-48 -409,-233 -460,-328 -21,-40 -97,-64 -97,-64l0 -317 331 -296 -121 -137 -15 -70 -209 113 -41 -32 -305 120 -14 91 -124 101 -123 -1z"/>

  <path id="Markovskiy" class="area" d="M6005 1703c-34,0 -84,41 -114,59l-194 -174 -304 -24c-368,-579 -275,-373 -216,-536 -253,12 -198,-58 -289,165 -37,90 -76,-63 -170,-40 -24,6 -33,34 -76,58 -71,41 -56,-92 -94,52 -12,46 -36,73 -24,128 12,55 146,171 173,181 27,11 27,-18 62,-47 35,-29 79,12 76,26 -3,14 -35,81 -50,128 -15,47 -14,91 -24,139 -22,96 -218,-6 -188,262 21,188 -173,349 -187,386 -16,45 -71,48 -102,50 -100,217 -56,166 -148,166 -26,0 -16,40 -35,47 -38,14 -70,-88 -105,54 59,-58 187,51 221,74 39,-74 52,-89 235,-19 41,-47 196,-201 185,-48l-14 120c191,12 255,42 296,-30 47,-81 167,-8 203,-47 21,-23 3,-113 38,-117 35,-5 90,64 150,66 61,2 329,-23 426,-44 97,-21 143,21 149,-15 6,-36 -8,-92 33,-103 -10,-63 -73,-84 17,-232 111,-184 -62,-245 22,-320 199,-179 38,-67 47,-365z"/>

  <path id="Svatovskiy" class="area" d="M483 3868c-47,-4 -196,-17 -215,-39 -23,-26 -11,-404 -11,-404l-56 -75c-57,-101 1,-82 -120,-102l-82 -369 144 -11c99,-152 92,-122 -12,-148l157 -132c-85,-202 -11,-164 59,-250 57,-70 -60,-59 147,-197 0,0 -99,-130 -113,-154l108 -65c20,-53 27,-31 99,-9 29,9 63,42 82,64l263 12c94,-27 84,-144 182,-67 -133,315 43,263 159,460 96,162 12,191 285,27l-2 -3c72,-44 95,18 120,72 26,56 31,17 48,23 89,30 -22,-69 98,-182 29,-27 18,-36 100,-36 124,0 71,-9 110,76 43,93 -71,111 -146,197 -136,157 -21,123 5,126 104,14 -6,71 268,87 90,5 92,220 10,235l-95 17 246 34c8,52 286,215 28,302 22,449 -183,247 -223,342 -38,-54 -40,-89 -126,-93 -33,53 -157,203 -212,220 -31,-21 -100,-211 -127,-226 -21,-12 -200,-26 -213,-23l-346 128c-61,9 -198,-26 -146,118 -131,10 -388,17 -480,31l3 14z"/>

  <path id="Troitskiy" class="area" d="M381 1972c14,-43 90,-65 -24,-65 -46,0 -53,62 -93,50 -61,-112 -57,-154 -27,-280l76 30c1,-1 202,-171 70,-210 -104,-31 -24,-185 3,-195 23,-8 305,55 55,-168 -146,-130 -207,-213 149,-372l12 64c29,-18 114,4 58,-110 50,-39 218,-117 64,-241 -16,-13 -100,-339 -103,-375 174,-2 309,31 355,-73 12,-27 100,-28 131,-28 30,0 6,59 18,111 12,52 99,134 111,151 12,17 -12,119 0,119 12,0 178,69 178,69 0,0 5,-84 103,-90 99,-6 111,137 197,149 87,12 190,-102 256,-107 116,-8 153,122 222,-6 39,-74 -55,-23 12,-189l135 108c-53,75 -135,201 7,255 -33,77 6,63 -161,84 -39,5 -227,120 82,175 114,20 93,228 80,312 -153,25 -145,-155 -256,30 -34,57 -150,45 -39,194 88,117 -133,-1 -109,240l77 14 -68 228 -157 -34c-66,317 -146,130 -82,306 48,134 -350,15 -219,217l51 66c-346,208 -104,40 -325,-121 -254,-185 -60,-345 -82,-365 -111,-103 -136,50 -203,58l-252 -12c-40,-46 -133,-95 -170,-88 -18,3 -33,43 -33,43l-96 55z"/>

  <path id="Belokurakinskiy" class="area" d="M2360 570c0,0 -18,41 -24,62 -6,21 -79,27 -152,37 -73,9 -87,76 -61,105 26,29 161,37 179,49 92,61 65,271 55,331 -106,40 -167,-96 -225,-27 -15,18 -49,101 -79,101 -36,-6 -57,43 8,129 100,134 -127,29 -107,237l83 15 -76 258 -156 -34c-15,69 -27,135 -92,200 -57,57 80,64 -24,160 -37,34 -125,15 -190,46 -64,31 56,155 55,154 84,-51 114,23 140,80 21,46 3,3 39,15 53,18 -21,-25 45,-134 56,-91 114,-97 233,-82 24,3 18,36 39,82 44,95 -59,134 -94,161 -48,36 -117,128 -115,146 2,18 12,2 56,8 44,6 85,55 123,70 122,49 229,-62 224,187 -2,84 -68,96 -68,96l150 21c4,-15 273,-334 324,46 10,70 11,74 111,163 205,-35 427,-119 515,-323 4,-9 -25,-62 -52,-75 -201,-94 11,-69 16,-306l-3 -231c-158,-65 -107,-127 -108,-242 -2,-259 46,-138 105,-358 6,-23 9,-54 6,-80l-166 -146c-8,-4 -135,-30 -150,-20 -159,106 -232,195 -237,-15 -4,-148 94,-136 34,-177 -107,-73 77,-31 94,-120 16,-82 67,-116 150,-153l59 -16c-3,-67 -11,-250 -77,-245 -175,14 -105,55 -287,-2 -20,-6 -83,-2 -109,-20 -26,-18 -115,-38 -132,-73 -23,-49 -42,-71 -61,-78z"/>

  <path id="Novopskovskiy" class="area" d="M4951 1022c-54,-6 -285,-89 -343,-20 -241,284 -616,-117 -619,-128 -38,-132 -171,-376 -214,-335 -100,94 -98,365 -454,395 -18,2 -150,143 -187,137 -148,-25 -67,-133 -251,0 -72,52 -21,71 -80,140 -45,53 -145,-22 -61,62 61,61 -69,24 -32,267 19,121 174,-170 373,-64l173 152c37,70 -91,274 -103,302 -18,43 3,180 -15,253 -18,73 115,122 115,122 11,287 32,292 -88,460 -49,69 82,27 127,151 321,-113 386,148 738,182 10,-9 26,-52 30,-69 -20,-18 -118,-54 -143,-62l60 -142 -9 9c68,-271 114,-63 133,-130 15,-56 94,-32 94,-32l79 -169c113,-9 66,-17 186,-156 215,-248 -44,-394 235,-492 94,-33 18,-45 115,-277 50,-119 -89,21 -117,10 -21,-8 -221,-140 -178,-270 91,-281 43,-33 159,-148 114,-113 174,88 202,19l76 -166z"/>

  <path id="Antratsit" class="city" d="M5237 8755c-39,0 -71,-32 -71,-71 0,-39 32,-71 71,-71 39,0 71,32 71,71 0,39 -32,71 -71,71z"/>
  <path id="Rovenki" class="city" d="M4667 8633c-39,0 -71,-32 -71,-71 0,-39 32,-71 71,-71 39,0 71,32 71,71 0,39 -32,71 -71,71z"/>
  <path id="KrasnyyLuch" class="city" d="M3855 8575c-39,0 -71,-32 -71,-71 0,-39 32,-71 71,-71 39,0 71,32 71,71 0,39 -32,71 -71,71z"/>
  <path id="Sverdlovsk" class="city" d="M6525 8864c-39,0 -71,-32 -71,-71 0,-39 32,-71 71,-71 39,0 71,32 71,71 0,39 -32,71 -71,71z"/>
  <path id="Krasnodon" class="city" d="M6740 7690c-39,0 -71,-32 -71,-71 0,-39 32,-71 71,-71 39,0 71,32 71,71 0,39 -32,71 -71,71z"/>
  <path id="Lutugino" class="city" d="M4902 7324c-39,0 -71,-32 -71,-71 0,-39 32,-71 71,-71 39,0 71,32 71,71 0,39 -32,71 -71,71z"/>
  <path id="Alchvsk" class="city" d="M3799 7284c-39,0 -71,-32 -71,-71 0,-39 32,-71 71,-71 39,0 71,32 71,71 0,39 -32,71 -71,71z"/>
  <path id="Perevalsk" class="city" d="M3604 7484c-39,0 -71,-32 -71,-71 0,-39 32,-71 71,-71 39,0 71,32 71,71 0,39 -32,71 -71,71z"/>
  <path id="StanichnoLuganskoye" class="city" d="M5617 5843c-39,0 -71,-32 -71,-71 0,-39 32,-71 71,-71 39,0 71,32 71,71 0,39 -32,71 -71,71z"/>
  <path id="Lugansk_0" class="city_center" d="M5321 6688c-62,0 -113,-51 -113,-114 0,-63 51,-113 113,-113 62,0 113,51 113,113 0,63 -51,114 -113,114z"/>
  <path id="Slavyanoserbsk" class="city" d="M3809 6105c-39,0 -71,-32 -71,-71 0,-39 32,-71 71,-71 39,0 71,32 71,71 0,39 -32,71 -71,71z"/>
  <path id="Bryanka" class="city" d="M2467 7343c-39,0 -71,-32 -71,-71 0,-39 32,-71 71,-71 39,0 71,32 71,71 0,39 -32,71 -71,71z"/>
  <path id="Stakhanov_x0020_" class="city" d="M2523 6786c-39,0 -71,-32 -71,-71 0,-39 32,-71 71,-71 39,0 71,32 71,71 0,39 -32,71 -71,71z"/>
  <path id="Kirovsk" class="city" d="M2524 6435c-39,0 -71,-32 -71,-71 0,-39 32,-71 71,-71 39,0 71,32 71,71 0,39 -32,71 -71,71z"/>
  <path id="Lisichansk" class="city" d="M2185 5583c-39,0 -71,-32 -71,-71 0,-39 32,-71 71,-71 39,0 71,32 71,71 0,39 -32,71 -71,71z"/>
  <path id="Severodonetsk" class="city" d="M2495 5289c-39,0 -71,-32 -71,-71 0,-39 32,-71 71,-71 39,0 71,32 71,71 0,39 -32,71 -71,71z"/>
  <path id="Novoaydar" class="city" d="M3971 4798c-39,0 -71,-32 -71,-71 0,-39 32,-71 71,-71 39,0 71,32 71,71 0,39 -32,71 -71,71z"/>
  <path id="Rubezhnoye" class="city" d="M2432 4841c-39,0 -71,-32 -71,-71 0,-39 32,-71 71,-71 39,0 71,32 71,71 0,39 -32,71 -71,71z"/>
  <path id="Kremennaya" class="city" d="M1377 4639c-39,0 -71,-32 -71,-71 0,-39 32,-71 71,-71 39,0 71,32 71,71 0,39 -32,71 -71,71z"/>
  <path id="Starobelsk" class="city" d="M3547 3445c-39,0 -71,-32 -71,-71 0,-39 32,-71 71,-71 39,0 71,32 71,71 0,39 -32,71 -71,71z"/>
  <path id="Belovodsk" class="city" d="M5793 3345c-39,0 -71,-32 -71,-71 0,-39 32,-71 71,-71 39,0 71,32 71,71 0,39 -32,71 -71,71z"/>
  <path id="Melovoe" class="city" d="M6861 2597c-39,0 -71,-32 -71,-71 0,-39 32,-71 71,-71 39,0 71,32 71,71 0,39 -32,71 -71,71z"/>
  <path id="Markovskiy_1" class="city" d="M4623 2915l0 0 0 0 0 0z"/>
  <path id="Markovka" class="city" d="M5444 2048c-39,0 -71,-32 -71,-71 0,-39 32,-71 71,-71 39,0 71,32 71,71 0,39 -32,71 -71,71z"/>
  <path id="Svatovo" class="city" d="M1121 3238c-39,0 -71,-32 -71,-71 0,-39 32,-71 71,-71 39,0 71,32 71,71 0,39 -32,71 -71,71z"/>
  <path id="Troitskoe" class="city" d="M1263 829c-39,0 -71,-32 -71,-71 0,-39 32,-71 71,-71 39,0 71,32 71,71 0,39 -32,71 -71,71z"/>
  <path id="Belokurakino" class="city" d="M2700 2252c-39,0 -71,-32 -71,-71 0,-39 32,-71 71,-71 39,0 71,32 71,71 0,39 -32,71 -71,71z"/>
  <path id="Novopskov" class="city" d="M4006 1987c-39,0 -71,-32 -71,-71 0,-39 32,-71 71,-71 39,0 71,32 71,71 0,39 -32,71 -71,71z"/>
  <path id="Popasnaya" class="city" d="M2022 6124c-39,0 -71,-32 -71,-71 0,-39 32,-71 71,-71 39,0 71,32 71,71 0,39 -32,71 -71,71z"/>
  <path id="Pervomaysk" class="city" d="M2371 6066c-39,0 -71,-32 -71,-71 0,-39 32,-71 71,-71 39,0 71,32 71,71 0,39 -32,71 -71,71z"/>
</svg>
